<svg width="28" height="30" viewBox="0 0 28 30" fill="none" xmlns="http://www.w3.org/2000/svg">
<path d="M0.105057 28.0745V2.48256C0.105228 2.42704 0.121788 2.3728 0.152661 2.32665C0.183534 2.2805 0.227344 2.24449 0.278599 2.22314C0.329853 2.20179 0.386271 2.19605 0.440776 2.20663C0.495282 2.21722 0.545449 2.24366 0.584987 2.28264L13.9104 15.2779L0.584987 28.2744C0.545449 28.3134 0.495282 28.3398 0.440776 28.3504C0.386271 28.361 0.329853 28.3553 0.278599 28.3339C0.227344 28.3126 0.183534 28.2766 0.152661 28.2304C0.121788 28.1843 0.105228 28.13 0.105057 28.0745ZM19.4976 20.6177L2.78928 29.823L2.77886 29.8288C2.49103 29.9851 2.21753 29.5957 2.45326 29.3691L15.5507 16.8453L19.4976 20.6177ZM2.45457 1.18668C2.21753 0.960068 2.49103 0.570652 2.78016 0.72694L2.79058 0.732801L19.4976 9.93809L15.5507 13.7118L2.45457 1.18668ZM26.2427 16.9059L21.5769 19.4755L17.1898 15.2779L21.5769 11.0822L26.2427 13.6499C27.5119 14.3512 27.5119 16.2045 26.2427 16.9059Z" fill="white"/>
</svg>
