<svg width="26" height="31" viewBox="0 0 26 31" fill="none" xmlns="http://www.w3.org/2000/svg">
<path d="M25.746 22.6572C25.276 24.1638 24.5347 25.6704 23.5223 27.177C21.9675 29.5394 20.4187 30.7206 18.8759 30.7206C18.2853 30.7206 17.4416 30.5277 16.3448 30.142C15.3083 29.7563 14.3983 29.5635 13.6148 29.5635C12.8796 29.5635 12.0239 29.7624 11.0476 30.1601C10.0713 30.5699 9.27582 30.7748 8.66112 30.7748C6.82909 30.7748 5.01514 29.2139 3.21927 26.0923C1.4475 22.9465 0.561615 19.9152 0.561615 16.9984C0.561615 14.2504 1.2426 11.9965 2.60457 10.2368C3.96654 8.50115 5.67804 7.63335 7.73908 7.63335C8.60688 7.63335 9.67356 7.81414 10.9391 8.17573C12.1926 8.53731 13.0242 8.7181 13.434 8.7181C13.9764 8.7181 14.8382 8.51321 16.0194 8.10341C17.2488 7.69361 18.2913 7.48872 19.1471 7.48872C20.5814 7.48872 21.865 7.88043 22.998 8.66387C23.6247 9.09777 24.2515 9.70041 24.8782 10.4718C23.926 11.2793 23.239 11.9904 22.8172 12.6051C22.0337 13.7381 21.642 14.9856 21.642 16.3475C21.642 17.8421 22.0579 19.186 22.8895 20.3792C23.7211 21.5725 24.6733 22.3318 25.746 22.6572ZM18.9482 1.45025C18.9482 2.18547 18.7735 3.00506 18.4239 3.90902C18.0623 4.81299 17.5019 5.64463 16.7425 6.40396C16.0917 7.05481 15.4408 7.48872 14.79 7.70567C14.344 7.83825 13.7173 7.9407 12.9097 8.01301C12.9459 6.21714 13.416 4.66835 14.3199 3.36665C15.2118 2.07699 16.7184 1.18508 18.8397 0.690918C18.8518 0.727076 18.8669 0.793367 18.8849 0.88979C18.903 0.986212 18.9181 1.0525 18.9301 1.08866C18.9301 1.13687 18.9332 1.19714 18.9392 1.26945C18.9452 1.34177 18.9482 1.40204 18.9482 1.45025Z" fill="white"/>
</svg>
